# xmcd
#
# Track frame offsets:
#	225
#	18367
#	32900
#	48191
#
# Disc length: 854 seconds
#
# Revision: 0
# Processed by: cddbd v1.4PL0 Copyright (c) Steve Scherf et al.
# Submitted via: dBpowerAMP V4.0
#
DISCID=28035304
DTITLE=Michelle Murray - Starting Now
DYEAR=1999
DGENRE=Country
TTITLE0=Starting Now
TTITLE1=What Would You Do
TTITLE2=I Want The Fairytale
TTITLE3=A Million Miles Away
EXTD=
EXTT0=
EXTT1=
EXTT2=
EXTT3=
PLAYORDER=
